<?xml version="1.0" standalone="no"?>
<!DOCTYPE svg PUBLIC "-//W3C//DTD SVG 20010904//EN"
 "http://www.w3.org/TR/2001/REC-SVG-20010904/DTD/svg10.dtd">
<svg version="1.0" xmlns="http://www.w3.org/2000/svg"
 width="200.000000pt" height="200.000000pt" viewBox="0 0 200.000000 200.000000"
 preserveAspectRatio="xMidYMid meet">
<metadata>
Created by potrace 1.14, written by Peter Selinger 2001-2017
</metadata>
<g transform="translate(0.000000,200.000000) scale(0.100000,-0.100000)"
fill="#000000" stroke="none">
<path d="M500 1957 l0 -43 -80 1 c-68 2 -81 -1 -85 -16 -3 -9 -5 -21 -4 -25 7
-38 0 -41 -81 -40 -86 1 -83 3 -82 -56 1 -26 -2 -28 -44 -28 -42 0 -44 -1 -40
-29 5 -41 -6 -53 -48 -54 l-36 -1 0 -83 0 -82 43 -3 c41 -3 42 -4 40 -36 -2
-36 17 -51 58 -47 25 3 26 1 25 -39 l-1 -42 -40 0 -40 0 0 -39 c0 -40 0 -40
-43 -43 -42 -3 -42 -3 -42 -43 0 -41 2 -42 56 -41 29 1 30 0 30 -41 -1 -40 0
-42 29 -43 43 0 52 -9 51 -46 -1 -31 -4 -33 -43 -36 l-41 -3 1 -42 2 -41 -42
0 -43 0 0 -42 0 -43 43 3 42 2 0 -43 0 -43 -42 0 -43 0 0 -83 0 -83 49 1 c33
1 47 -3 43 -10 -4 -5 -7 -25 -7 -43 -1 -31 0 -32 40 -32 l42 0 0 -40 c0 -22
-5 -40 -11 -41 -6 -1 -24 -2 -41 -3 -28 -1 -30 -3 -29 -43 0 -38 -2 -41 -25
-41 -65 1 -62 5 -59 -84 l3 -83 38 1 c20 1 37 -1 38 -5 0 -3 2 -22 2 -41 l2
-35 83 0 82 0 0 -42 0 -43 750 0 750 0 0 43 0 42 82 0 83 0 1 30 c1 17 2 35 3
41 0 6 18 11 39 10 l37 -1 3 86 3 85 -34 -1 c-18 -1 -38 -4 -43 -7 -5 -4 -9
13 -9 40 l0 47 -42 0 -42 0 2 40 c3 39 4 40 43 45 39 5 40 6 40 45 l0 40 42
-1 42 -1 0 83 0 83 -42 3 c-40 3 -42 4 -43 36 -1 38 15 50 58 46 27 -3 28 -1
25 39 -3 40 -5 42 -35 42 -39 0 -47 8 -48 48 0 30 -2 32 -41 35 -40 3 -41 3
-41 42 0 22 5 40 11 41 6 1 25 2 41 3 26 1 30 5 31 31 1 17 2 35 3 42 0 6 13
11 29 11 50 -1 52 1 52 42 l0 40 -43 0 c-42 0 -43 1 -41 32 4 50 -3 57 -54 53
-26 -2 -42 -1 -36 1 10 4 11 55 1 71 -3 5 11 9 31 8 55 -2 62 3 59 43 -2 37
-2 37 41 40 l42 3 0 84 0 85 -32 -2 c-54 -1 -55 0 -52 42 l3 40 -43 0 c-40 0
-43 2 -43 28 -1 60 4 57 -93 56 -63 0 -87 3 -81 10 4 6 7 25 7 41 l-1 30 -82
0 -83 0 0 42 0 43 -500 0 -500 0 0 -43z"/>
</g>
</svg>
